{"title":"Formula.1.2016x11.Hungary.Qualifying.SkyF1HD.SD","uid":15395694,"size":2258021316,"categoryP":"video","categoryS":"tv_shows","magnet":"?xt=urn:btih:4159531b0dc080eed10367616a9c869f7076249e&amp;dn=Formula.1.2016x11.Hungary.Qualifying.SkyF1HD.SD&amp;tr=udp%3A%2F%2Ftracker.leechers-paradise.org%3A6969&amp;tr=udp%3A%2F%2Fzer0day.ch%3A1337&amp;tr=udp%3A%2F%2Fopen.demonii.com%3A1337&amp;tr=udp%3A%2F%2Ftracker.coppersurfer.tk%3A6969&amp;tr=udp%3A%2F%2Fexodus.desync.com%3A6969","seeders":3,"leechers":2,"uploader":"smcgill1969","files":3,"time":1469392221,"description":"Qualyfying for the 2016 Hungarian Grand Prix from the Hungaroring, Mogyoród.\r\n\r\n\r\nVideo\r\nID                                       : 1\r\nFormat                                   : AVC\r\nFormat/Info                              : Advanced Video Codec\r\nFormat profile                           :   \r\nFormat settings, CABAC                   : Yes\r\nFormat settings, ReFrames                : 4 frames\r\nCodec ID                                 : avc1\r\nCodec ID/Info                            : Advanced Video Coding\r\nDuration                                 : 55mn 2s\r\nBit rate                                 : 1 072 Kbps\r\nWidth                                    : 640 pixels\r\nHeight                                   : 360 pixels\r\nDisplay aspect ratio                     : 16:9\r\nFrame rate mode                          : Constant\r\nFrame rate                               : 25.000 fps\r\nColor space                              : YUV\r\nChroma subsampling                       : 4:2:0\r\nBit depth                                : 8 bits\r\nScan type                                : Progressive\r\nBits/(Pixel*Frame)                       : 0.186\r\nStream size                              : 422 MiB (89%)\r\nEncoded date                             : UTC 2016-07-23 19:21:57\r\nTagged date                              : UTC 2016-07-23 19:21:57\r\nColor range                              : Limited\r\nColor primaries                          : BT.709\r\nTransfer characteristics                 : BT.709\r\nMatrix coefficients                      : BT.709\r\n\r\nAudio\r\nID                                       : 2\r\nFormat                                   : AAC\r\nFormat/Info                              : Advanced Audio Codec\r\nFormat profile                           : LC\r\nCodec ID                                 : 40\r\nDuration                                 : 55mn 2s\r\nBit rate mode                            : Variable\r\nBit rate                                 : 128 Kbps\r\nChannel(s)                               : 2 channels\r\nChannel positions                        : Front: L R\r\nSampling rate                            : 44.1 KHz\r\nFrame rate                               : 43.066 fps (1024 spf)\r\nCompression mode                         : Lossy\r\nStream size                              : 50.4 MiB (11%)\r\nTitle                                    : Eng / Eng\r\nLanguage                                 : English\r\nDefault                                  : Yes\r\nAlternate group                          : 1\r\nEncoded date                             : UTC 2016-07-23 19:21:57\r\nTagged date                              : UTC 2016-07-23 19:21:57","torrent":{"xt":"urn:btih:4159531b0dc080eed10367616a9c869f7076249e","amp;dn":"Formula.1.2016x11.Hungary.Qualifying.SkyF1HD.SD","amp;tr":["udp%3A%2F%2Ftracker.leechers-paradise.org%3A6969","udp%3A%2F%2Fzer0day.ch%3A1337","udp%3A%2F%2Fopen.demonii.com%3A1337","udp%3A%2F%2Ftracker.coppersurfer.tk%3A6969","udp%3A%2F%2Fexodus.desync.com%3A6969"],"infoHash":"4159531b0dc080eed10367616a9c869f7076249e","infoHashBuffer":{"type":"Buffer","data":[65,89,83,27,13,192,128,238,209,3,103,97,106,156,134,159,112,118,36,158]},"announce":[],"urlList":[]}}